<svg width="803" height="123" viewBox="0 0 803 123" fill="none" xmlns="http://www.w3.org/2000/svg">
<path d="M37.7116 87H29.5582L56.3303 36.0909H65.2045L75.0732 87H66.9197L59.4872 45.3381H59.0895L37.7116 87ZM42.3849 67.0639H68.8338L67.7401 73.527H41.2912L42.3849 67.0639ZM81.8283 87L88.1919 48.8182H95.3759L94.3567 54.8835H94.7544C95.7819 52.8286 97.2817 51.2128 99.2537 50.0362C101.226 48.843 103.33 48.2464 105.568 48.2464C106.048 48.2464 106.595 48.263 107.208 48.2962C107.821 48.3127 108.319 48.3542 108.7 48.4205L107.507 55.5298C107.225 55.447 106.711 55.3558 105.965 55.2564C105.22 55.1404 104.449 55.0824 103.654 55.0824C101.914 55.0824 100.298 55.4553 98.8063 56.201C97.3148 56.9302 96.0636 57.9493 95.0527 59.2585C94.0418 60.5511 93.3873 62.026 93.089 63.6832L89.2608 87H81.8283ZM106.469 101.318L115.268 48.8182H122.527L121.508 55.0078H122.129C122.693 54.2124 123.455 53.2926 124.416 52.2486C125.394 51.2045 126.678 50.2931 128.269 49.5142C129.86 48.7188 131.84 48.321 134.21 48.321C137.293 48.321 139.903 49.0999 142.04 50.6577C144.178 52.2154 145.703 54.4609 146.614 57.3942C147.526 60.3274 147.642 63.8572 146.962 67.9837C146.283 72.1101 145.007 75.6482 143.134 78.598C141.262 81.5312 138.991 83.7933 136.323 85.3842C133.672 86.9586 130.796 87.7457 127.697 87.7457C125.377 87.7457 123.546 87.3563 122.204 86.5774C120.878 85.7985 119.892 84.8871 119.246 83.843C118.599 82.799 118.111 81.871 117.779 81.0589H117.332L113.951 101.318H106.469ZM119.37 67.9091C118.939 70.5937 118.939 72.947 119.37 74.9688C119.801 76.9905 120.663 78.5732 121.955 79.7166C123.264 80.8435 124.988 81.407 127.126 81.407C129.346 81.407 131.294 80.8187 132.967 79.642C134.641 78.4489 136.025 76.8331 137.119 74.7947C138.229 72.7564 139 70.4612 139.43 67.9091C139.845 65.3902 139.836 63.1281 139.406 61.1229C138.991 59.1177 138.138 57.535 136.845 56.375C135.553 55.215 133.788 54.6349 131.55 54.6349C129.379 54.6349 127.457 55.1901 125.783 56.3004C124.126 57.4107 122.751 58.9602 121.657 60.9489C120.563 62.9375 119.801 65.2576 119.37 67.9091ZM168.458 87.7706C164.713 87.7706 161.614 86.9669 159.161 85.3594C156.725 83.7353 155.018 81.4567 154.041 78.5234C153.063 75.5736 152.905 72.1184 153.568 68.1577C154.215 64.2467 155.516 60.7997 157.471 57.8168C159.427 54.8338 161.863 52.5054 164.779 50.8317C167.713 49.1579 170.952 48.321 174.499 48.321C176.653 48.321 178.683 48.6773 180.589 49.3899C182.511 50.1025 184.144 51.2211 185.486 52.7457C186.828 54.2704 187.756 56.2507 188.27 58.6868C188.8 61.1063 188.784 64.0478 188.22 67.5114L187.798 70.1463H157.421L158.291 64.5781H181.36C181.708 62.6226 181.616 60.8909 181.086 59.3828C180.556 57.8582 179.644 56.6567 178.352 55.7784C177.076 54.9001 175.468 54.4609 173.529 54.4609C171.541 54.4609 169.685 54.983 167.961 56.027C166.238 57.071 164.796 58.4051 163.636 60.0291C162.492 61.6366 161.771 63.2938 161.473 65.0007L160.603 70.0966C160.172 72.8807 160.247 75.1179 160.827 76.8082C161.423 78.4986 162.468 79.7249 163.959 80.4872C165.45 81.2495 167.315 81.6307 169.552 81.6307C170.994 81.6307 172.328 81.4318 173.554 81.0341C174.797 80.6198 175.899 80.0149 176.86 79.2195C177.821 78.4074 178.625 77.3965 179.271 76.1868L186.083 77.4545C185.171 79.526 183.862 81.3407 182.155 82.8984C180.448 84.4396 178.435 85.6411 176.115 86.5028C173.811 87.348 171.259 87.7706 168.458 87.7706ZM206.945 102.114C203.895 102.114 201.343 101.716 199.288 100.92C197.25 100.125 195.643 99.0727 194.466 97.7635C193.306 96.4543 192.502 95.0208 192.055 93.4631L198.915 90.8281C199.247 91.5573 199.711 92.3279 200.308 93.1399C200.904 93.9685 201.791 94.6728 202.967 95.2528C204.161 95.8329 205.793 96.1229 207.864 96.1229C210.682 96.1229 213.143 95.4351 215.247 94.0597C217.352 92.7008 218.653 90.5298 219.15 87.5469L220.318 80.0398H219.846C219.282 80.8518 218.504 81.755 217.509 82.7493C216.515 83.7436 215.231 84.6054 213.656 85.3345C212.082 86.0637 210.126 86.4283 207.79 86.4283C204.774 86.4283 202.172 85.724 199.984 84.3153C197.813 82.8902 196.256 80.7938 195.311 78.0263C194.366 75.2422 194.234 71.8201 194.913 67.7599C195.576 63.6998 196.836 60.2197 198.692 57.3196C200.564 54.4195 202.835 52.1989 205.503 50.6577C208.188 49.0999 211.063 48.321 214.129 48.321C216.498 48.321 218.346 48.7188 219.672 49.5142C221.014 50.2931 222.009 51.2045 222.655 52.2486C223.301 53.2926 223.773 54.2124 224.072 55.0078H224.619L225.638 48.8182H232.921L226.458 87.8452C225.928 91.1264 224.726 93.8194 222.854 95.924C220.998 98.0286 218.686 99.5864 215.918 100.597C213.167 101.608 210.176 102.114 206.945 102.114ZM210.325 80.2635C212.446 80.2635 214.336 79.7663 215.993 78.772C217.667 77.7611 219.059 76.3194 220.169 74.4467C221.279 72.5575 222.05 70.2955 222.481 67.6605C222.912 65.0919 222.887 62.8298 222.406 60.8743C221.942 58.9188 221.039 57.3942 219.697 56.3004C218.371 55.1901 216.639 54.6349 214.501 54.6349C212.248 54.6349 210.292 55.215 208.635 56.375C206.978 57.5185 205.627 59.0762 204.583 61.0483C203.556 63.0204 202.835 65.2244 202.42 67.6605C202.023 70.1629 202.031 72.3587 202.445 74.2479C202.876 76.1371 203.738 77.612 205.031 78.6726C206.323 79.7332 208.088 80.2635 210.325 80.2635ZM250.148 102.114C247.098 102.114 244.546 101.716 242.491 100.92C240.453 100.125 238.846 99.0727 237.669 97.7635C236.509 96.4543 235.705 95.0208 235.258 93.4631L242.119 90.8281C242.45 91.5573 242.914 92.3279 243.511 93.1399C244.107 93.9685 244.994 94.6728 246.17 95.2528C247.364 95.8329 248.996 96.1229 251.067 96.1229C253.885 96.1229 256.346 95.4351 258.45 94.0597C260.555 92.7008 261.856 90.5298 262.353 87.5469L263.521 80.0398H263.049C262.486 80.8518 261.707 81.755 260.712 82.7493C259.718 83.7436 258.434 84.6054 256.859 85.3345C255.285 86.0637 253.33 86.4283 250.993 86.4283C247.977 86.4283 245.375 85.724 243.188 84.3153C241.017 82.8902 239.459 80.7938 238.514 78.0263C237.57 75.2422 237.437 71.8201 238.116 67.7599C238.779 63.6998 240.039 60.2197 241.895 57.3196C243.768 54.4195 246.038 52.1989 248.706 50.6577C251.391 49.0999 254.266 48.321 257.332 48.321C259.701 48.321 261.549 48.7188 262.875 49.5142C264.217 50.2931 265.212 51.2045 265.858 52.2486C266.504 53.2926 266.977 54.2124 267.275 55.0078H267.822L268.841 48.8182H276.124L269.661 87.8452C269.131 91.1264 267.929 93.8194 266.057 95.924C264.201 98.0286 261.889 99.5864 259.121 100.597C256.371 101.608 253.379 102.114 250.148 102.114ZM253.528 80.2635C255.65 80.2635 257.539 79.7663 259.196 78.772C260.87 77.7611 262.262 76.3194 263.372 74.4467C264.482 72.5575 265.253 70.2955 265.684 67.6605C266.115 65.0919 266.09 62.8298 265.609 60.8743C265.145 58.9188 264.242 57.3942 262.9 56.3004C261.574 55.1901 259.842 54.6349 257.705 54.6349C255.451 54.6349 253.495 55.215 251.838 56.375C250.181 57.5185 248.83 59.0762 247.786 61.0483C246.759 63.0204 246.038 65.2244 245.624 67.6605C245.226 70.1629 245.234 72.3587 245.648 74.2479C246.079 76.1371 246.941 77.612 248.234 78.6726C249.526 79.7332 251.291 80.2635 253.528 80.2635ZM279.729 87L286.092 48.8182H293.525L287.161 87H279.729ZM291.362 42.8523C290.07 42.8523 288.976 42.4214 288.081 41.5597C287.203 40.6813 286.797 39.6373 286.863 38.4276C286.929 37.2012 287.443 36.1572 288.404 35.2955C289.365 34.4171 290.484 33.978 291.76 33.978C293.053 33.978 294.138 34.4171 295.016 35.2955C295.895 36.1572 296.309 37.2012 296.259 38.4276C296.193 39.6373 295.679 40.6813 294.718 41.5597C293.773 42.4214 292.655 42.8523 291.362 42.8523ZM313.417 87.7706C309.788 87.7706 306.756 86.942 304.319 85.2848C301.883 83.611 300.168 81.2744 299.174 78.2749C298.196 75.2588 298.03 71.7538 298.677 67.7599C299.306 63.849 300.574 60.4351 302.48 57.5185C304.402 54.6018 306.805 52.3397 309.689 50.7322C312.589 49.1248 315.812 48.321 319.358 48.321C322.988 48.321 326.012 49.1579 328.432 50.8317C330.868 52.5054 332.583 54.8504 333.577 57.8665C334.572 60.8826 334.746 64.3958 334.099 68.4062C333.47 72.2841 332.185 75.6813 330.246 78.598C328.324 81.4981 325.921 83.7519 323.037 85.3594C320.154 86.9669 316.947 87.7706 313.417 87.7706ZM313.84 81.5312C316.226 81.5312 318.306 80.9015 320.079 79.642C321.869 78.3826 323.327 76.7088 324.454 74.6207C325.581 72.5327 326.352 70.2457 326.766 67.7599C327.147 65.357 327.139 63.1612 326.741 61.1726C326.36 59.1674 325.532 57.5599 324.256 56.3501C322.979 55.1404 321.206 54.5355 318.936 54.5355C316.55 54.5355 314.453 55.1735 312.647 56.4496C310.857 57.709 309.399 59.3911 308.272 61.4957C307.162 63.6004 306.407 65.8956 306.01 68.3814C305.629 70.7678 305.629 72.9635 306.01 74.9688C306.391 76.9574 307.22 78.5483 308.496 79.7415C309.772 80.9347 311.553 81.5312 313.84 81.5312ZM340.805 36.0909H358.006L369.839 64.9261H370.435L382.268 36.0909H399.469V87H385.947V57.5682H385.549L374.214 86.6023H366.06L354.725 57.3693H354.327V87H340.805V36.0909ZM416.858 87.5966C414.422 87.5966 412.267 87.1989 410.395 86.4034C408.538 85.5914 407.08 84.3651 406.02 82.7244C404.959 81.0838 404.429 78.9957 404.429 76.4602C404.429 74.3722 404.785 72.5907 405.498 71.1158C406.21 69.6243 407.204 68.4062 408.48 67.4616C409.757 66.517 411.24 65.7962 412.93 65.299C414.637 64.8018 416.476 64.4787 418.449 64.3295C420.586 64.1638 422.301 63.965 423.594 63.733C424.903 63.4844 425.848 63.1446 426.428 62.7138C427.008 62.2663 427.298 61.678 427.298 60.9489V60.8494C427.298 59.8551 426.917 59.0928 426.154 58.5625C425.392 58.0322 424.414 57.767 423.221 57.767C421.912 57.767 420.843 58.0571 420.015 58.6371C419.203 59.2005 418.714 60.0705 418.548 61.2472H405.92C406.086 58.9271 406.823 56.7893 408.132 54.8338C409.458 52.8617 411.389 51.2874 413.924 50.1108C416.46 48.9176 419.625 48.321 423.42 48.321C426.154 48.321 428.607 48.6442 430.778 49.2905C432.949 49.9202 434.797 50.8068 436.321 51.9503C437.846 53.0772 439.006 54.4029 439.801 55.9276C440.614 57.4356 441.02 59.0762 441.02 60.8494V87H428.193V81.6307H427.895C427.132 83.0559 426.204 84.2076 425.11 85.0859C424.033 85.9643 422.799 86.6023 421.407 87C420.031 87.3977 418.515 87.5966 416.858 87.5966ZM421.332 78.946C422.376 78.946 423.354 78.7306 424.265 78.2997C425.193 77.8688 425.947 77.2474 426.527 76.4354C427.107 75.6233 427.397 74.6373 427.397 73.4773V70.2955C427.033 70.4446 426.643 70.5855 426.229 70.718C425.831 70.8506 425.4 70.9749 424.936 71.0909C424.489 71.2069 424.008 71.3146 423.495 71.4141C422.998 71.5135 422.475 71.6046 421.929 71.6875C420.868 71.8532 419.998 72.1267 419.319 72.5078C418.656 72.8724 418.158 73.3281 417.827 73.875C417.512 74.4053 417.355 75.0019 417.355 75.6648C417.355 76.7254 417.728 77.5374 418.473 78.1009C419.219 78.6643 420.172 78.946 421.332 78.946ZM482.476 61.2472H469.849C469.782 60.4683 469.509 59.7971 469.028 59.2337C468.548 58.6702 467.926 58.2393 467.164 57.9411C466.418 57.6262 465.59 57.4688 464.678 57.4688C463.501 57.4688 462.491 57.6842 461.645 58.1151C460.8 58.5459 460.386 59.1591 460.403 59.9545C460.386 60.518 460.626 61.04 461.123 61.5206C461.637 62.0012 462.623 62.3741 464.081 62.6392L471.837 64.0312C475.748 64.7438 478.657 65.9453 480.562 67.6357C482.485 69.3094 483.454 71.5549 483.471 74.3722C483.454 77.09 482.642 79.4515 481.035 81.4567C479.444 83.4453 477.265 84.9865 474.497 86.0803C471.746 87.1574 468.606 87.696 465.076 87.696C459.242 87.696 454.677 86.5028 451.379 84.1165C448.098 81.7301 446.267 78.5814 445.885 74.6705H459.508C459.69 75.8802 460.287 76.8165 461.297 77.4794C462.325 78.1257 463.617 78.4489 465.175 78.4489C466.435 78.4489 467.47 78.2334 468.282 77.8026C469.111 77.3717 469.534 76.7585 469.55 75.9631C469.534 75.2339 469.169 74.6539 468.456 74.223C467.76 73.7921 466.667 73.4441 465.175 73.179L458.414 71.9858C454.519 71.3063 451.603 70.0137 449.664 68.108C447.725 66.2022 446.764 63.7495 446.78 60.75C446.764 58.0985 447.46 55.853 448.868 54.0135C450.294 52.1574 452.324 50.7488 454.959 49.7876C457.61 48.8099 460.751 48.321 464.38 48.321C469.898 48.321 474.248 49.4645 477.43 51.7514C480.629 54.0384 482.311 57.2036 482.476 61.2472ZM511.498 48.8182V58.7614H486.342V48.8182H511.498ZM491.214 39.6705H504.936V74.7202C504.936 75.2505 505.027 75.6979 505.209 76.0625C505.391 76.4105 505.673 76.6757 506.054 76.858C506.435 77.0237 506.924 77.1065 507.521 77.1065C507.935 77.1065 508.416 77.0568 508.963 76.9574C509.526 76.858 509.94 76.7751 510.205 76.7088L512.194 86.3537C511.581 86.536 510.703 86.7597 509.559 87.0249C508.432 87.29 507.09 87.464 505.532 87.5469C502.383 87.7126 499.74 87.3894 497.602 86.5774C495.465 85.7488 493.857 84.4479 492.78 82.6747C491.703 80.9015 491.181 78.6809 491.214 76.0128V39.6705ZM534.983 87.696C530.906 87.696 527.393 86.9171 524.443 85.3594C521.51 83.785 519.248 81.5312 517.657 78.598C516.082 75.6482 515.295 72.1184 515.295 68.0085C515.295 64.0644 516.091 60.6174 517.681 57.6676C519.272 54.7178 521.518 52.4226 524.418 50.782C527.318 49.1413 530.74 48.321 534.684 48.321C537.568 48.321 540.178 48.7685 542.515 49.6634C544.851 50.5582 546.848 51.8591 548.505 53.5661C550.163 55.2564 551.439 57.3113 552.333 59.7308C553.228 62.1503 553.676 64.8764 553.676 67.9091V71.0909H519.571V63.5341H541.048C541.031 62.4403 540.75 61.4792 540.203 60.6506C539.672 59.8054 538.952 59.1508 538.04 58.6868C537.145 58.2062 536.126 57.9659 534.983 57.9659C533.872 57.9659 532.853 58.2062 531.925 58.6868C530.997 59.1508 530.251 59.7971 529.688 60.6257C529.141 61.4543 528.851 62.4238 528.818 63.5341V71.6875C528.818 72.9138 529.075 74.0076 529.588 74.9688C530.102 75.9299 530.84 76.6839 531.801 77.2308C532.762 77.7777 533.922 78.0511 535.281 78.0511C536.225 78.0511 537.087 77.9186 537.866 77.6534C538.662 77.3883 539.341 77.0071 539.904 76.5099C540.468 75.9962 540.882 75.383 541.147 74.6705H553.676C553.245 77.322 552.226 79.6255 550.618 81.581C549.011 83.5199 546.881 85.0279 544.23 86.1051C541.595 87.1657 538.512 87.696 534.983 87.696ZM559.275 87V48.8182H572.599V56.0767H572.997C573.693 53.392 574.795 51.4283 576.303 50.1854C577.827 48.9425 579.609 48.321 581.647 48.321C582.244 48.321 582.832 48.3707 583.412 48.4702C584.009 48.553 584.58 48.6773 585.127 48.843V60.5511C584.448 60.3191 583.611 60.1451 582.617 60.0291C581.622 59.9131 580.769 59.8551 580.056 59.8551C578.714 59.8551 577.504 60.1617 576.427 60.7749C575.366 61.3714 574.53 62.2166 573.916 63.3104C573.303 64.3875 572.997 65.6553 572.997 67.1136V87H559.275ZM605.834 87.696C601.691 87.696 598.145 86.8757 595.195 85.2351C592.245 83.5779 589.983 81.2744 588.409 78.3246C586.834 75.3582 586.047 71.9195 586.047 68.0085C586.047 64.0975 586.834 60.6671 588.409 57.7173C589.983 54.7509 592.245 52.4474 595.195 50.8068C598.145 49.1496 601.691 48.321 605.834 48.321C609.579 48.321 612.819 49.0005 615.553 50.3594C618.304 51.7017 620.434 53.6075 621.942 56.0767C623.45 58.5294 624.212 61.4129 624.229 64.7273H611.502C611.319 62.7221 610.739 61.1974 609.762 60.1534C608.8 59.0928 607.557 58.5625 606.033 58.5625C604.84 58.5625 603.796 58.9105 602.901 59.6065C602.006 60.286 601.31 61.3217 600.813 62.7138C600.316 64.0893 600.067 65.821 600.067 67.9091C600.067 69.9972 600.316 71.7372 600.813 73.1293C601.31 74.5047 602.006 75.5405 602.901 76.2365C603.796 76.916 604.84 77.2557 606.033 77.2557C607.044 77.2557 607.939 77.0237 608.718 76.5597C609.496 76.0791 610.126 75.383 610.607 74.4716C611.104 73.5436 611.402 72.4167 611.502 71.0909H624.229C624.179 74.455 623.409 77.3883 621.917 79.8906C620.426 82.3764 618.313 84.2988 615.578 85.6577C612.86 87.0166 609.612 87.696 605.834 87.696ZM643.612 36.0909V87H629.89V36.0909H643.612ZM661.242 87.5966C658.806 87.5966 656.652 87.1989 654.779 86.4034C652.923 85.5914 651.465 84.3651 650.404 82.7244C649.344 81.0838 648.813 78.9957 648.813 76.4602C648.813 74.3722 649.17 72.5907 649.882 71.1158C650.595 69.6243 651.589 68.4062 652.865 67.4616C654.141 66.517 655.624 65.7962 657.315 65.299C659.022 64.8018 660.861 64.4787 662.833 64.3295C664.971 64.1638 666.686 63.965 667.979 63.733C669.288 63.4844 670.233 63.1446 670.813 62.7138C671.393 62.2663 671.683 61.678 671.683 60.9489V60.8494C671.683 59.8551 671.302 59.0928 670.539 58.5625C669.777 58.0322 668.799 57.767 667.606 57.767C666.297 57.767 665.228 58.0571 664.399 58.6371C663.587 59.2005 663.098 60.0705 662.933 61.2472H650.305C650.471 58.9271 651.208 56.7893 652.517 54.8338C653.843 52.8617 655.774 51.2874 658.309 50.1108C660.845 48.9176 664.01 48.321 667.805 48.321C670.539 48.321 672.992 48.6442 675.163 49.2905C677.334 49.9202 679.182 50.8068 680.706 51.9503C682.231 53.0772 683.391 54.4029 684.186 55.9276C684.998 57.4356 685.404 59.0762 685.404 60.8494V87H672.578V81.6307H672.279C671.517 83.0559 670.589 84.2076 669.495 85.0859C668.418 85.9643 667.183 86.6023 665.791 87C664.416 87.3977 662.9 87.5966 661.242 87.5966ZM665.717 78.946C666.761 78.946 667.739 78.7306 668.65 78.2997C669.578 77.8688 670.332 77.2474 670.912 76.4354C671.492 75.6233 671.782 74.6373 671.782 73.4773V70.2955C671.418 70.4446 671.028 70.5855 670.614 70.718C670.216 70.8506 669.785 70.9749 669.321 71.0909C668.874 71.2069 668.393 71.3146 667.879 71.4141C667.382 71.5135 666.86 71.6046 666.313 71.6875C665.253 71.8532 664.383 72.1267 663.703 72.5078C663.04 72.8724 662.543 73.3281 662.212 73.875C661.897 74.4053 661.74 75.0019 661.74 75.6648C661.74 76.7254 662.112 77.5374 662.858 78.1009C663.604 78.6643 664.557 78.946 665.717 78.946ZM726.861 61.2472H714.233C714.167 60.4683 713.894 59.7971 713.413 59.2337C712.932 58.6702 712.311 58.2393 711.549 57.9411C710.803 57.6262 709.974 57.4688 709.063 57.4688C707.886 57.4688 706.875 57.6842 706.03 58.1151C705.185 58.5459 704.771 59.1591 704.787 59.9545C704.771 60.518 705.011 61.04 705.508 61.5206C706.022 62.0012 707.008 62.3741 708.466 62.6392L716.222 64.0312C720.133 64.7438 723.041 65.9453 724.947 67.6357C726.869 69.3094 727.839 71.5549 727.855 74.3722C727.839 77.09 727.027 79.4515 725.419 81.4567C723.828 83.4453 721.649 84.9865 718.882 86.0803C716.131 87.1574 712.99 87.696 709.461 87.696C703.627 87.696 699.062 86.5028 695.764 84.1165C692.483 81.7301 690.651 78.5814 690.27 74.6705H703.892C704.075 75.8802 704.671 76.8165 705.682 77.4794C706.71 78.1257 708.002 78.4489 709.56 78.4489C710.819 78.4489 711.855 78.2334 712.667 77.8026C713.496 77.3717 713.918 76.7585 713.935 75.9631C713.918 75.2339 713.554 74.6539 712.841 74.223C712.145 73.7921 711.051 73.4441 709.56 73.179L702.799 71.9858C698.904 71.3063 695.988 70.0137 694.049 68.108C692.11 66.2022 691.149 63.7495 691.165 60.75C691.149 58.0985 691.845 55.853 693.253 54.0135C694.678 52.1574 696.708 50.7488 699.343 49.7876C701.995 48.8099 705.135 48.321 708.765 48.321C714.283 48.321 718.633 49.4645 721.815 51.7514C725.013 54.0384 726.695 57.2036 726.861 61.2472ZM768.013 61.2472H755.386C755.319 60.4683 755.046 59.7971 754.565 59.2337C754.085 58.6702 753.463 58.2393 752.701 57.9411C751.955 57.6262 751.127 57.4688 750.215 57.4688C749.039 57.4688 748.028 57.6842 747.183 58.1151C746.337 58.5459 745.923 59.1591 745.94 59.9545C745.923 60.518 746.163 61.04 746.661 61.5206C747.174 62.0012 748.16 62.3741 749.619 62.6392L757.374 64.0312C761.285 64.7438 764.194 65.9453 766.099 67.6357C768.022 69.3094 768.991 71.5549 769.008 74.3722C768.991 77.09 768.179 79.4515 766.572 81.4567C764.981 83.4453 762.802 84.9865 760.034 86.0803C757.283 87.1574 754.143 87.696 750.613 87.696C744.78 87.696 740.214 86.5028 736.916 84.1165C733.635 81.7301 731.804 78.5814 731.423 74.6705H745.045C745.227 75.8802 745.824 76.8165 746.835 77.4794C747.862 78.1257 749.155 78.4489 750.712 78.4489C751.972 78.4489 753.008 78.2334 753.82 77.8026C754.648 77.3717 755.071 76.7585 755.087 75.9631C755.071 75.2339 754.706 74.6539 753.994 74.223C753.298 73.7921 752.204 73.4441 750.712 73.179L743.951 71.9858C740.057 71.3063 737.14 70.0137 735.201 68.108C733.262 66.2022 732.301 63.7495 732.317 60.75C732.301 58.0985 732.997 55.853 734.406 54.0135C735.831 52.1574 737.861 50.7488 740.496 49.7876C743.147 48.8099 746.288 48.321 749.917 48.321C755.435 48.321 759.786 49.4645 762.967 51.7514C766.166 54.0384 767.848 57.2036 768.013 61.2472Z" fill="white"/>
</svg>
